<mxfile host="app.diagrams.net" modified="2024-05-01T10:11:45.048Z" agent="Mozilla/5.0 (Windows NT 10.0; Win64; x64) AppleWebKit/537.36 (KHTML, like Gecko) Chrome/124.0.0.0 Safari/537.36" version="24.3.1" etag="bRMhfESBai8sIASnbSsR" type="github">
  <diagram name="Page-1" id="PJl3lgmpc5ZyzjWu6n-7">
    <mxGraphModel>
      <root>
        <mxCell id="0" />
        <mxCell id="1" parent="0" />
      </root>
    </mxGraphModel>
  </diagram>
</mxfile>
